<?xml version="1.0" standalone="no"?>
<!DOCTYPE svg PUBLIC "-//W3C//DTD SVG 20010904//EN"
 "http://www.w3.org/TR/2001/REC-SVG-20010904/DTD/svg10.dtd">
<svg version="1.0" xmlns="http://www.w3.org/2000/svg"
 width="700.000000pt" height="700.000000pt" viewBox="0 0 700.000000 700.000000"
 preserveAspectRatio="xMidYMid meet">
<metadata>
Created by potrace 1.14, written by Peter Selinger 2001-2017
</metadata>
<g transform="translate(0.000000,700.000000) scale(0.100000,-0.100000)"
fill="#000000" stroke="none">
<path d="M1982 6968 c-302 -30 -659 -161 -1002 -366 -139 -83 -420 -278 -450
-311 -3 -4 -36 -31 -75 -62 -38 -31 -86 -72 -106 -90 -20 -19 -60 -56 -89 -83
-51 -46 -53 -49 -35 -62 31 -23 466 -240 657 -329 l177 -82 -62 -54 c-77 -67
-178 -168 -237 -237 -53 -63 -164 -216 -182 -252 -7 -14 -18 -32 -24 -40 -20
-24 -121 -232 -155 -317 -102 -257 -167 -554 -195 -900 -13 -156 -7 -561 11
-683 2 -14 6 -50 10 -80 51 -432 219 -905 444 -1250 37 -58 131 -191 141 -200
3 -3 21 -25 39 -50 19 -25 43 -54 53 -65 10 -11 27 -31 39 -45 86 -104 330
-332 447 -418 12 -9 28 -22 35 -27 39 -33 158 -115 167 -115 5 0 10 -3 10 -8
0 -4 26 -23 58 -41 31 -19 80 -49 107 -67 59 -38 232 -132 325 -175 179 -84
278 -129 285 -129 3 0 24 -9 48 -19 87 -39 348 -129 537 -185 84 -24 349 -91
403 -100 15 -3 35 -7 45 -10 33 -10 236 -45 392 -67 41 -5 85 -12 98 -14 13
-2 63 -7 112 -10 l89 -7 193 96 c217 108 237 119 472 260 229 138 212 126 391
250 134 93 428 314 445 335 3 3 32 28 65 56 225 187 534 511 705 739 19 26 40
52 45 59 62 73 211 319 291 479 58 115 154 347 154 371 0 7 3 17 8 21 4 4 7
11 8 14 0 4 6 27 14 52 7 25 14 50 16 55 30 124 46 194 48 210 2 11 6 34 10
50 4 17 9 48 11 70 2 22 8 72 12 110 18 162 6 575 -21 730 -33 184 -56 282
-97 416 -162 524 -482 958 -919 1245 -112 73 -275 159 -380 199 -41 16 -78 31
-82 35 -4 3 23 23 60 44 264 151 462 269 462 275 0 7 -151 153 -192 186 -40
32 -190 137 -228 160 -139 82 -401 190 -505 208 -17 3 -64 12 -105 20 -132 26
-362 38 -450 23 -14 -2 -47 -7 -75 -11 -65 -9 -197 -51 -260 -83 -177 -89
-316 -232 -410 -423 -20 -41 -40 -81 -44 -89 -5 -8 -16 -47 -26 -86 l-19 -71
-39 76 c-96 187 -251 380 -411 510 -219 179 -479 294 -775 342 -138 22 -362
30 -489 17z"/>
</g>
</svg>
